<svg xmlns="http://www.w3.org/2000/svg" viewBox="0 0 96 96" role="img" aria-label="Jon avatar">
  <rect width="96" height="96" rx="18" fill="#1b2533"/>
  <circle cx="48" cy="50" r="24" fill="#f0c8a7"/>
  <path d="M23 43c1-15 11-25 25-25s24 10 25 25v6c-3-4-7-7-12-9-6-2-12-2-19 0-5 2-9 5-12 9z" fill="#0f172a"/>
  <circle cx="40.5" cy="50.5" r="2.2" fill="#0f172a"/>
  <circle cx="55.5" cy="50.5" r="2.2" fill="#0f172a"/>
  <path d="M39.5 60c2.6 2.8 5.4 4 8.5 4s5.9-1.2 8.5-4" fill="none" stroke="#8a5a3b" stroke-width="2.1" stroke-linecap="round"/>
  <path d="M22 96c2-15 12-24 26-24s24 9 26 24" fill="#0ea5e9"/>
</svg>
